<svg width="150" height="32" viewBox="0 0 150 32" fill="none" xmlns="http://www.w3.org/2000/svg">
<path d="M40.2809 11.0216C40.2809 14.1295 42.1071 16.0997 45.5909 16.8489L48.8499 17.5704C50.5356 17.9311 51.238 18.7359 51.238 20.0956C51.238 21.7883 49.7209 22.815 47.3328 22.815C45.029 22.815 43.6243 21.7883 43.5962 20.0678H40C40.0843 23.703 42.95 26.0062 47.3328 26.0062C51.8561 26.0062 54.8342 23.5642 54.8342 19.7903C54.8342 16.7657 53.1204 14.9897 49.6085 14.2405L46.3776 13.5468C44.6638 13.1583 43.8771 12.3535 43.8771 10.9106C43.8771 9.21788 45.31 8.16341 47.5295 8.16341C49.5523 8.16341 50.8166 9.19013 50.9009 10.9383H54.497C54.3846 7.27544 51.7437 5 47.5856 5C43.259 5 40.2809 7.46968 40.2809 11.0216Z" fill="white"/>
<path d="M61.0093 25.6454V18.1531C61.0093 16.0997 62.2736 14.6012 64.4369 14.6012C66.1788 14.6012 67.3307 15.7112 67.3307 18.0144V25.6454H70.7583V17.2097C70.7583 13.6578 68.9602 11.5211 65.5326 11.5211C63.5379 11.5211 61.9084 12.3813 61.0374 13.7133V5H57.5818V25.6454H61.0093Z" fill="white"/>
<path d="M73.3112 18.7636C73.3112 23.037 76.4298 25.9784 80.7283 25.9784C85.0268 25.9784 88.1454 23.037 88.1454 18.7636C88.1454 14.4902 85.0268 11.5488 80.7283 11.5488C76.4298 11.5488 73.3112 14.4902 73.3112 18.7636ZM76.7388 18.7636C76.7388 16.2662 78.3683 14.5735 80.7283 14.5735C83.0883 14.5735 84.7178 16.2662 84.7178 18.7636C84.7178 21.261 83.0883 22.9538 80.7283 22.9538C78.3683 22.9538 76.7388 21.261 76.7388 18.7636Z" fill="white"/>
<path d="M90.8622 32H94.2898V23.814C95.1608 25.2014 96.9589 26.0062 99.0379 26.0062C103.168 26.0062 105.528 22.8983 105.528 18.6249C105.528 14.3237 102.943 11.5211 99.0379 11.5211C96.9308 11.5211 95.1046 12.4368 94.2617 14.0185L94.037 11.9373H90.8622V32ZM94.3179 18.7914C94.3179 16.3217 95.8631 14.6012 98.2231 14.6012C100.639 14.6012 102.072 16.3494 102.072 18.7914C102.072 21.2333 100.639 22.9538 98.2231 22.9538C95.8631 22.9538 94.3179 21.261 94.3179 18.7914Z" fill="white"/>
<path d="M108.257 32H111.685V23.814C112.556 25.2014 114.354 26.0062 116.433 26.0062C120.563 26.0062 122.923 22.8983 122.923 18.6249C122.923 14.3237 120.338 11.5211 116.433 11.5211C114.326 11.5211 112.499 12.4368 111.656 14.0185L111.432 11.9373H108.257V32ZM111.713 18.7914C111.713 16.3217 113.258 14.6012 115.618 14.6012C118.034 14.6012 119.467 16.3494 119.467 18.7914C119.467 21.2333 118.034 22.9538 115.618 22.9538C113.258 22.9538 111.713 21.261 111.713 18.7914Z" fill="white"/>
<path d="M131.861 26.0062C135.485 26.0062 138.014 24.2025 138.604 21.2055H135.429C135.035 22.5098 133.799 23.2312 131.917 23.2312C129.641 23.2312 128.349 22.0103 128.096 19.5961L138.547 19.5683V18.5416C138.547 14.2682 135.906 11.5211 131.748 11.5211C127.675 11.5211 124.837 14.4902 124.837 18.7914C124.837 23.037 127.731 26.0062 131.861 26.0062ZM131.776 14.296C133.827 14.296 135.148 15.5447 135.148 17.4317H128.18C128.517 15.3782 129.754 14.296 131.776 14.296Z" fill="white"/>
<path d="M150 11.8818C149.438 11.7431 148.96 11.6876 148.483 11.6876C146.629 11.6876 145.308 12.6033 144.718 13.963L144.521 11.9651H141.291V25.6454H144.718V18.9856C144.718 16.3217 146.263 15.0175 148.736 15.0175H150V11.8818Z" fill="white"/>
<g clip-path="url(#clip0_1674_1536)">
<path d="M5.57143 9.375V7.5C5.57143 3.36445 8.9039 0 13 0C17.0962 0 20.4286 3.36445 20.4286 7.5V9.375H26V25.3125C26 27.9013 23.9213 30 21.3571 30H4.64286C2.07867 30 0 27.9013 0 25.3125V9.375H5.57143ZM16.7143 7.5C16.7143 5.43223 15.0481 3.75 13 3.75C10.9519 3.75 9.28571 5.43223 9.28571 7.5V9.375H16.7143V7.5ZM7.42857 14.5312C8.19783 14.5312 8.82143 13.9017 8.82143 13.125C8.82143 12.3483 8.19783 11.7188 7.42857 11.7188C6.65931 11.7188 6.03571 12.3483 6.03571 13.125C6.03571 13.9017 6.65931 14.5312 7.42857 14.5312ZM18.5714 14.5312C19.3407 14.5312 19.9643 13.9017 19.9643 13.125C19.9643 12.3483 19.3407 11.7188 18.5714 11.7188C17.8022 11.7188 17.1786 12.3483 17.1786 13.125C17.1786 13.9017 17.8022 14.5312 18.5714 14.5312Z" fill="#3056D3"/>
</g>
<defs>
<clipPath id="clip0_1674_1536">
<rect width="26" height="30" fill="white" transform="matrix(-1 0 0 1 26 0)"/>
</clipPath>
</defs>
</svg>
